<svg width="743" height="743" viewBox="0 0 743 743" fill="none" xmlns="http://www.w3.org/2000/svg">
<path d="M497.201 466.131C475.5 410.62 356.292 474.458 356.292 474.458C356.292 474.458 350.799 465.513 345.026 463.192C326.859 455.888 318.902 420.74 318.902 420.74L466.504 407.678C466.504 407.678 466.701 407.608 467.974 407.188C472.349 405.744 470.913 395.759 470.913 395.759L469.77 236.89C469.77 236.89 470.217 234.116 469.607 233.787C467.484 232.644 461.279 232.971 461.279 232.971C461.279 232.971 379.641 233.298 332.454 237.053C327.6 237.439 323.637 228.236 323.637 228.236C323.637 228.236 338.318 213.877 336.536 202.928C335.393 195.907 470.913 186.927 470.913 186.927C470.913 186.927 451.973 93.0893 522.998 91.6201C527.589 91.5251 522.832 182.338 522.998 186.927C527.596 313.604 527.08 330.448 524.141 456.498C523.954 464.521 533.41 528.819 522.998 529.62C518.753 529.947 498.659 469.862 497.201 466.131Z" fill="#2563E9" stroke="black" stroke-width="0.285849"/>
<path d="M176.623 598.772C251.748 602.865 350.448 595.997 350.448 595.997C145.815 241.564 419.495 141.834 316.137 153.488C217.184 164.644 184.892 278.677 174.044 362.689C174.044 362.689 158.907 483.281 153.917 576.067C153.243 588.589 164.101 598.09 176.623 598.772Z" fill="#2563E9" stroke="black" stroke-width="0.285849"/>
</svg>
